<svg width="144" height="36" viewBox="0 0 144 36" fill="none" xmlns="http://www.w3.org/2000/svg">
  <g>
    <circle cx="18" cy="18" r="18" fill="#2D1582"/>
    <circle cx="18" cy="18" r="15" fill="#A59CFF"/>
    <path d="M24.5 13C24.5 13 22.5 10 18 10C13.5 10 11.5 13 11.5 13C11.5 13 9 17 10 21C11 25 14.5 26 18 26C21.5 26 25 25 26 21C27 17 24.5 13 24.5 13Z" fill="#F7F2EA"/>
    <path d="M18 12.5C15 12.5 13 15 13 15C15 17 17 16 18 16C19 16 21 17 23 15C23 15 21 12.5 18 12.5Z" fill="#2D1582"/>
    <path d="M13 19C14.33 20.33 15.67 20.33 17 19" stroke="#2D1582" strokeWidth="1.5" strokeLinecap="round"/>
    <path d="M19 19C20.33 20.33 21.67 20.33 23 19" stroke="#2D1582" strokeWidth="1.5" strokeLinecap="round"/>
    <path d="M13 22C14 24 16 24.5 18 24.5C20 24.5 22 24 23 22" stroke="#FFC341" strokeWidth="2" strokeLinecap="round"/>
  </g>
  <path d="M44.5 11C47.5 11 49.833 11.667 51.5 13C53.167 14.333 54 16.5 54 19.5C54 22.5 53.167 24.667 51.5 26C49.833 27.333 47.5 28 44.5 28H39.5V11H44.5ZM44.5 24.5C46.167 24.5 47.333 24.167 48 23.5C48.667 22.833 49 21.5 49 19.5C49 17.5 48.667 16.167 48 15.5C47.333 14.833 46.167 14.5 44.5 14.5H44V24.5H44.5Z" fill="#2D1582"/>
  <path d="M63.3848 28.25C62.0514 28.25 60.9014 28 59.9348 27.5C58.9681 27 58.2348 26.25 57.7348 25.25C57.2348 24.25 56.9848 23 56.9848 21.5V17.5C56.9848 16 57.2348 14.75 57.7348 13.75C58.2348 12.75 58.9681 12 59.9348 11.5C60.9014 11 62.0514 10.75 63.3848 10.75C65.0514 10.75 66.4014 11.0833 67.4348 11.75C68.4681 12.4167 69.1848 13.3333 69.5848 14.5L66.2348 15.75C66.0681 15.0833 65.7514 14.5833 65.2848 14.25C64.8181 13.9167 64.1848 13.75 63.3848 13.75C62.4681 13.75 61.7848 14 61.3348 14.5C60.8848 15 60.6598 16 60.6598 17.5V21.5C60.6598 23 60.8848 24 61.3348 24.5C61.7848 25 62.4681 25.25 63.3848 25.25C64.1848 25.25 64.8181 25.0833 65.2848 24.75C65.7514 24.4167 66.0681 23.9167 66.2348 23.25L69.5848 24.5C69.1848 25.6667 68.4681 26.5833 67.4348 27.25C66.4014 27.9167 65.0514 28.25 63.3848 28.25Z" fill="#2D1582"/>
  <path d="M75.6973 20.5V28H72.0723V11H75.6973V18.5H80.6973V11H84.3223V28H80.6973V20.5H75.6973Z" fill="#2D1582"/>
  <path d="M92.5723 24.5H98.5723V28H88.9473V11H92.5723V24.5Z" fill="#2D1582"/>
  <path d="M108.047 28.25C106.047 28.25 104.464 27.75 103.297 26.75C102.13 25.75 101.547 24.1667 101.547 22V11H105.172V22C105.172 23 105.422 23.75 105.922 24.25C106.422 24.75 107.13 25 108.047 25C108.964 25 109.672 24.75 110.172 24.25C110.672 23.75 110.922 23 110.922 22V11H114.547V22C114.547 24.1667 113.964 25.75 112.797 26.75C111.63 27.75 110.047 28.25 108.047 28.25Z" fill="#2D1582"/>
  <path d="M126.109 28.25C124.776 28.25 123.626 28 122.659 27.5C121.693 27 120.959 26.25 120.459 25.25C119.959 24.25 119.709 23 119.709 21.5V17.5C119.709 16 119.959 14.75 120.459 13.75C120.959 12.75 121.693 12 122.659 11.5C123.626 11 124.776 10.75 126.109 10.75C127.776 10.75 129.126 11.0833 130.159 11.75C131.193 12.4167 131.909 13.3333 132.309 14.5L128.959 15.75C128.793 15.0833 128.476 14.5833 128.009 14.25C127.543 13.9167 126.909 13.75 126.109 13.75C125.193 13.75 124.509 14 124.059 14.5C123.609 15 123.384 16 123.384 17.5V21.5C123.384 23 123.609 24 124.059 24.5C124.509 25 125.193 25.25 126.109 25.25C126.909 25.25 127.543 25.0833 128.009 24.75C128.476 24.4167 128.793 23.9167 128.959 23.25L132.309 24.5C131.909 25.6667 131.193 26.5833 130.159 27.25C129.126 27.9167 127.776 28.25 126.109 28.25Z" fill="#2D1582"/>
  <path d="M144.172 28H140.547V14.5H136.547V11H148.172V14.5H144.172V28Z" fill="#2D1582"/>
</svg>